<?xml version="1.0" encoding="UTF-8" standalone="no"?>
<svg
   width="56"
   height="56"
   shape-rendering="crispEdges"
   version="1.1"
   id="svg4"
   sodipodi:docname="favicon.svg"
   inkscape:version="1.3.2 (091e20e, 2023-11-25, custom)"
   xmlns:inkscape="http://www.inkscape.org/namespaces/inkscape"
   xmlns:sodipodi="http://sodipodi.sourceforge.net/DTD/sodipodi-0.dtd"
   xmlns="http://www.w3.org/2000/svg"
   xmlns:svg="http://www.w3.org/2000/svg">
  <defs
     id="defs4" />
  <sodipodi:namedview
     id="namedview4"
     pagecolor="#ffffff"
     bordercolor="#000000"
     borderopacity="0.25"
     inkscape:showpageshadow="2"
     inkscape:pageopacity="0.0"
     inkscape:pagecheckerboard="0"
     inkscape:deskcolor="#d1d1d1"
     inkscape:zoom="7.2589286"
     inkscape:cx="19.493235"
     inkscape:cy="34.095941"
     inkscape:window-width="1920"
     inkscape:window-height="1009"
     inkscape:window-x="1912"
     inkscape:window-y="-8"
     inkscape:window-maximized="1"
     inkscape:current-layer="svg4" />
  <path
     fill="#f8e8f8"
     d="M 24,0 V 24 H 16 V 56 H 40 V 0"
     id="path1" />
  <path
     fill="#807098"
     d="m 28,0 h 2 v 1 h 1 v 1 h 1 V 3 H 31 V 4 H 29 V 3 h -1 z m 3,0 h 1 v 1 h -1 z m 2,0 h 2 v 1 h -1 v 1 h -1 z m 4,0 h 2 v 1 h -2 z m -2,1 h 2 v 1 h -2 z m 4,0 h 1 V 4 H 38 V 5 H 37 V 3 h 1 V 2 h 1 z m -6,2 h 1 v 2 h -1 z m 2,0 h 1 V 5 H 35 Z M 25,4 h 4 v 1 h -4 z m 5,1 h 3 V 9 H 32 V 6 h -2 z m 4,0 h 1 v 1 h -1 z m 2,0 h 1 v 1 h 1 V 5 h 2 v 1 h -1 v 2 h -1 v 1 h -2 v 1 H 35 V 9 H 34 V 7 h 1 V 6 h 1 z M 24,7 h 1 v 1 h -1 z m 0,3 h 2 v 1 h 1 v 1 h -2 v -1 h -1 z m 13,0 h 1 v 1 h 1 v 1 h -2 z m 2,0 h 1 v 1 h -1 z m -11,1 h 1 v 1 h -1 z m 2,0 h 1 v 1 h -1 z m 3,0 h 1 v 1 h -1 z m 2,0 h 1 v 1 h -1 z m -11,1 h 1 v 1 h -1 z m 3,0 h 1 v 1 h -1 z m 2,0 h 1 v 1 h -1 z m 2,0 h 1 v 1 h 2 v 1 h 1 v 1 h -2 v -1 h -3 v -1 h 1 z m -5,1 h 1 v 1 h -1 z m 2,0 h 1 v 1 h -1 z m 7,0 h 2 v 1 h -2 z m 3,0 h 2 v 1 h -2 z m -14,2 h 1 v 1 h -1 z m 11,0 h 2 v 1 h 1 v 1 h -2 v -1 h -1 z m 4,0 h 1 v 1 h -1 z m -13,1 h 1 v 1 h -1 z m 2,0 h 1 v 1 h -1 z m 2,0 h 4 v 1 h -4 z m -2,2 h 1 v 1 h -1 z m 3,0 h 1 v 1 h 1 v 1 h -3 v -1 h 1 z m 4,0 h 4 v 1 h -2 v 1 h -3 v -1 h 1 z m -10,1 h 1 v 1 h -1 z m 2,0 h 1 v 1 h -1 z m 10,1 h 3 v 2 h -1 v -1 h -2 z m -11,1 h 2 v 2 h -3 v -1 h 1 z m 4,0 h 2 v 3 h 1 v -1 h 1 v 2 h 1 v 1 h -2 v -1 h -2 v -1 h -1 v -1 h -1 v -1 h 1 z m 6,0 h 1 v 1 h -1 z m -8,2 h 1 v 1 h -1 z m 7,0 h 2 v 1 h -1 v 1 h -1 z m 4,0 h 1 v 1 h -1 z m -23,1 h 8 v 3 h -1 v 2 h 3 v 1 h -2 v 1 h -1 v -1 h -6 v -1 h 5 v -4 h -6 z m 9,0 h 3 v 1 h -3 z m 4,0 h 1 v 1 h -1 z m 8,0 h 1 v 1 h -1 z m -1,1 h 1 v 1 h -1 z m 2,0 h 2 v 3 h -1 v -2 h -1 z m -6,1 h 1 v 2 h -1 z m 3,0 h 1 v 2 h -1 z m 2,0 h 1 v 2 h -1 z m -11,2 h 2 v 1 h 1 v 1 h -2 v -1 h -1 z m 7,0 h 2 v 1 h -2 z m 3,0 h 1 v 1 h -1 z m 2,0 h 1 v 1 h -1 z m -6,1 h 1 v 2 h -1 z m 3,0 h 1 v 1 h 1 v -1 h 1 v 2 h 1 v 1 h -1 v 2 h -1 v -1 h -1 v 1 h -1 v -1 h -2 v -1 h 2 v -1 h -1 v -1 h 1 z m 4,0 h 1 v 1 h -1 z m -12,2 h 1 v 1 h -1 z m 2,0 h 1 v 1 h -1 z m 2,0 h 1 v 1 h -1 z m -10,1 h 1 v 1 h -1 z m 3,1 h 2 v 1 h -2 z m 3,0 h 1 v 1 h -1 z m 3,0 h 1 v 1 h -1 z m 9,0 h 1 v 1 h -1 z m -17,1 h 2 v 1 h -1 v 1 h -1 v 1 h 1 v 1 h -6 v -1 h -1 v -1 h 1 v -1 h 1 v 1 h 1 v -1 h 1 v 1 h 1 v -1 h 1 z m 11,0 h 2 v 1 h -1 v 1 h 1 v -1 h 1 v 1 h 1 v 1 h -5 v 1 h -1 v -2 h 2 z m 5,0 h 1 v 1 h -1 z m -14,1 h 4 v 1 h 1 v 2 h -3 v -1 h -3 v -1 h 1 z m 5,0 h 2 v 1 h -2 z m 9,1 h 1 v 1 h -1 z m -1,1 h 1 v 1 h -1 z m -19,2 h 1 v 2 h -1 z m 2,0 h 1 v 2 h -1 z m 2,0 h 1 v 2 h -1 z m 2,0 h 2 v 2 h -1 v -1 h -1 z m 3,0 h 1 v 1 h -1 z m 4,0 h 1 v 1 h -1 z m 7,0 h 1 v 1 h -1 z m -5,1 h 1 v 1 h -1 z m 2,0 h 1 v 1 h -1 z m 2,0 h 1 v 1 h -1 z m -20,1 h 1 v 1 h -1 z m 2,0 h 1 v 1 h -1 z m 2,0 h 1 v 1 h -1 z m 2,0 h 1 v 1 h -1 z m 3,0 h 2 v 2 h -1 v -1 h -1 z m 4,0 h 2 v 1 h 7 v 1 h -1 v 1 h -1 v -1 h -1 v 3 h -4 v -1 h 1 v -2 h -2 v -1 h -1 z m 9,0 h 1 v 1 h -1 z m -10,2 h 2 v 1 h 1 v 1 h -4 v 1 h 1 v 1 h 1 v -1 h 1 v 1 h 1 v 1 h -4 v -1 h -1 v -3 h 2 z m 10,0 h 1 v 1 h -1 z m -23,2 h 10 v 3 h -2 v -2 h -8 z m 22,0 h 1 v 1 h -1 z m -1,1 h 1 v 1 h -1 z m 2,0 h 1 v 2 h -1 z m -19,2 h 4 v 2 h -1 v -1 h -1 v 1 h -1 v -1 h -1 z m 6,0 h 2 v 3 h -1 v -1 h -1 z m 6,0 h 7 v 1 h -7 z m -16,1 h 4 v 1 h 1 v 1 h -5 z m 13,0 h 1 v 1 h -1 z m 2,0 h 1 v 1 h 2 v 1 h -3 z m -9,1 h 1 v 2 h -1 z m 2,0 h 2 v 1 h 1 v 1 h 1 v 1 h -5 v -1 h 1 z m 11,0 h 5 v 1 h -1 v 1 h -1 v -1 h -1 v 1 h -3 v -1 h 1 z m -7,1 h 3 v 1 h -3 z m -12,1 h 6 v 1 h 1 v 1 h -2 v -1 h -1 v 1 h 1 v 1 h 1 v 1 h -2 v -1 h -4 z m 12,1 h 1 v 1 h -1 z m 2,0 h 1 v 3 h -2 v -2 h 1 z m 2,0 h 2 v 3 h -1 v -1 h -1 z m 6,0 h 2 v 1 h -1 v 1 h -2 v -1 h 1 z m -15,1 h 1 v 1 h -1 z m 12,0 h 1 v 1 h -1 z m -11,1 h 4 v 1 h -4 z m 15,0 h 1 v 1 h -1 z"
     id="path2" />
  <path
     fill="#181010"
     d="m 24,0 h 1 v 1 h -1 z m 0,6 h 1 v 1 h -1 z m 2,0 h 1 v 1 h -1 z m 2,0 h 1 v 1 h -1 z m 2,0 h 1 v 1 h -1 z m -6,3 h 1 v 1 h -1 z m 3,0 h 1 v 1 h -1 z m 2,0 h 1 v 1 h -1 z m 2,0 h 1 v 1 h -1 z m 6,0 h 1 v 1 h -1 z m 2,0 h 1 v 1 h -1 z m -15,2 h 1 v 1 h -1 z m 9,1 h 5 v 1 h -5 z m 6,0 h 1 v 1 h -1 z m -13,2 h 4 v 1 h -4 z m 9,0 h 4 v 1 h -4 z m -4,1 h 1 v 1 h -1 z m 2,0 h 2 v 1 h -2 z m -5,2 h 1 v 1 h -1 z m 4,0 h 2 v 1 h -2 z m 3,0 h 2 v 1 h -2 z m 3,0 h 1 v 1 h -1 z m -14,1 h 1 v 2 h -1 z m 1,2 h 1 v 1 h -1 z m 2,0 h 2 v 1 h -2 z m 4,0 h 1 v 1 h -1 z m 1,2 h 4 v 1 h -4 z m 6,0 h 2 v 1 h -2 z m -13,3 h 1 v 1 h -1 z m 2,0 h 5 v 1 h -1 v 1 h -1 v -1 h -1 v 1 h 1 v 1 h -2 v -1 h -1 z m -11,1 h 1 v 1 h -1 z m 8,0 h 1 v 1 h 1 v 1 h -2 z m 7,1 h 1 v 1 h -1 z m -8,1 h 1 v 1 h -1 z m -7,2 h 1 v 1 h -1 z m 9,0 h 2 v 1 h -2 z m 5,0 h 2 v 1 h -2 z m -13,1 h 5 v 1 h -5 z m 6,0 h 1 v 1 h -1 z m -7,1 h 1 v 2 h -1 z m 9,0 h 7 v 1 h -7 z m 14,0 h 1 v 1 h -1 z m -21,1 h 1 v 1 h -1 z m 2,0 h 1 v 1 h -1 z m 3,0 h 1 v 1 h -1 z m 1,1 h 2 v 1 h -2 z m 4,0 h 1 v 1 h -1 z m -12,1 h 1 v 1 h -1 z m 23,1 h 1 v 1 h -1 z m -1,1 h 1 v 2 h -1 z m -20,1 h 1 v 1 h -1 z m 2,0 h 1 v 1 h -1 z m 2,0 h 1 v 1 h -1 z m 2,0 h 4 v 1 h -4 z m 6,0 h 1 v 1 h -1 z m 3,1 h 1 v 1 h -1 z m 2,0 h 1 v 1 h -1 z m 2,0 h 1 v 1 h -1 z m 2,0 h 1 v 1 h -1 z m -10,1 h 1 v 1 h -1 z m 9,0 h 1 v 1 h -1 z m -14,2 h 1 v 1 h -1 z m 10,4 h 3 v 2 h -2 v -1 h -1 z m -1,1 h 1 v 1 h -1 z m -1,2 h 1 v 1 h -1 z m 7,0 h 1 v 1 h -1 z m -5,3 h 3 v 1 h -3 z m 4,0 h 1 v 1 h -1 z"
     id="path3" />
  <path
     fill="#f0b088"
     d="m 24,5 h 1 v 1 h -1 z m 1,1 h 1 v 1 h 1 V 6 h 1 v 1 h 1 V 6 h 1 v 1 h 1 V 6 h 1 v 2 h -7 z m -1,2 h 1 v 1 h -1 z m 1,1 h 2 v 1 h -2 z m 3,0 h 1 v 1 h -1 z m 2,0 h 1 v 1 h -1 z m 6,0 h 1 v 1 h -1 z m 2,0 h 1 v 1 h -1 z m -6,3 h 1 v 1 h -1 z m 6,0 h 1 v 1 h -1 z m -13,2 h 1 v 1 h 4 v -1 h 2 v 1 h -1 v 1 h -6 z m 14,0 h 1 v 1 h -1 z m -7,1 h 1 v 1 h -1 z m -8,1 h 1 v 1 h 3 v 1 h -4 z m 5,1 h 3 v 1 h -3 z m 5,0 h 1 v 1 h -1 z m 3,0 h 1 v 1 h -1 z m 2,0 h 1 v 1 h -1 z m -15,3 h 1 v 1 h -1 z m 2,0 h 1 v 1 h -1 z m 3,0 h 2 v 1 h -2 z m -5,2 h 1 v 1 h -1 z m 12,0 h 2 v 1 h -2 z m -10,3 h 1 v 2 h 1 v 1 h -2 v -1 h -1 v -1 h 1 z m 3,1 h 1 v 1 h -1 z m 2,0 h 1 v 1 h -1 z m -1,1 h 1 v 1 h -1 z m -14,2 h 1 v 1 h -1 z m 11,1 h 3 v 1 h -3 z m -5,1 h 1 v 1 h -1 z m -5,2 h 1 v 1 h -1 z m 2,0 h 1 v 1 h -1 z m 2,0 h 2 v 1 h -2 z m 5,0 h 1 v 1 h 1 v 1 h -2 z m 3,1 h 3 v 1 h -3 z m -13,3 h 1 v 1 h -1 z m 8,0 h 2 v 1 h -2 z m 15,0 h 1 v 1 h -1 z m -22,1 h 1 v 1 h -1 z m 2,0 h 1 v 1 h -1 z m 2,0 h 1 v 1 h -1 z m 2,0 h 1 v 1 h -1 z m 5,0 h 2 v 1 h -2 z m 3,0 h 7 v 1 h -1 v 1 h -1 v -1 h -1 v 1 h -1 v -1 h -1 v 1 h -1 v -1 h -1 z m -15,1 h 1 v 2 h -1 z m 10,0 h 1 v 1 h -1 z m -2,1 h 1 v 1 h -1 z m 3,0 h 2 v 1 h -2 z m 3,0 h 2 v 1 h -2 z m 9,0 h 1 v 1 h -1 z m -7,1 h 7 v 1 h -7 z m 7,1 h 1 v 1 h -1 z m -3,3 h 1 v 1 h -1 z m -4,1 h 2 v 1 h -1 v 1 h -1 z m 2,1 h 1 v 1 h -1 z m -1,2 h 6 v 1 h -6 z m -1,3 h 2 v 1 h -2 z m 5,0 h 1 v 1 h -1 z m 2,0 h 1 v 1 h -1 z"
     id="path4" />
</svg>
